<?xml version="1.0" encoding="UTF-8" standalone="no"?>
<!-- Created with Inkscape (http://www.inkscape.org/) -->

<svg
   xmlns:dc="http://purl.org/dc/elements/1.1/"
   xmlns:cc="http://creativecommons.org/ns#"
   xmlns:rdf="http://www.w3.org/1999/02/22-rdf-syntax-ns#"
   xmlns:svg="http://www.w3.org/2000/svg"
   xmlns="http://www.w3.org/2000/svg"
   xmlns:sodipodi="http://sodipodi.sourceforge.net/DTD/sodipodi-0.dtd"
   xmlns:inkscape="http://www.inkscape.org/namespaces/inkscape"
   width="23.916485"
   height="30.870741"
   id="svg3059"
   version="1.1"
   inkscape:version="0.48.4 r9939"
   sodipodi:docname="New document 3">
  <defs
     id="defs3061" />
  <sodipodi:namedview
     id="base"
     pagecolor="#ffffff"
     bordercolor="#666666"
     borderopacity="1.0"
     inkscape:pageopacity="0.0"
     inkscape:pageshadow="2"
     inkscape:zoom="2.8"
     inkscape:cx="-16.296142"
     inkscape:cy="2.3907376"
     inkscape:document-units="px"
     inkscape:current-layer="layer1"
     showgrid="false"
     fit-margin-top="0"
     fit-margin-left="0"
     fit-margin-right="0"
     fit-margin-bottom="0"
     inkscape:window-width="463"
     inkscape:window-height="423"
     inkscape:window-x="75"
     inkscape:window-y="75"
     inkscape:window-maximized="0" />
  <metadata
     id="metadata3064">
    <rdf:RDF>
      <cc:Work
         rdf:about="">
        <dc:format>image/svg+xml</dc:format>
        <dc:type
           rdf:resource="http://purl.org/dc/dcmitype/StillImage" />
        <dc:title></dc:title>
      </cc:Work>
    </rdf:RDF>
  </metadata>
  <g
     inkscape:label="Layer 1"
     inkscape:groupmode="layer"
     id="layer1"
     transform="translate(-542.32747,-585.49824)">
    <path
       sodipodi:type="arc"
       id="path3021"
       sodipodi:cx="205"
       sodipodi:cy="27.362181"
       sodipodi:rx="19.821428"
       sodipodi:ry="19.821428"
       d="m 224.82143,27.362181 c 0,10.947072 -8.87436,19.821428 -19.82143,19.821428 -10.94707,0 -19.82143,-8.874356 -19.82143,-19.821428 0,-10.947073 8.87436,-19.8214286 19.82143,-19.8214286 10.94707,0 19.82143,8.8743556 19.82143,19.8214286 z"
       transform="matrix(0.49589174,0,0,0.56856058,452.62791,587.41328)"
       style="fill:none;stroke:#f89406;stroke-width:8.01891613;stroke-linecap:butt;stroke-linejoin:miter;stroke-miterlimit:4;stroke-opacity:1;stroke-dasharray:none;stroke-dashoffset:0;marker-start:none;marker-mid:none;marker-end:none" />
    <rect
       style="fill:#f89406;fill-opacity:1"
       id="rect3031"
       width="3.2764275"
       height="4.4672618"
       x="552.66962"
       y="585.75208"
       ry="0" />
    <path
       sodipodi:type="arc"
       style="fill:#f89406;fill-opacity:1"
       id="path3056"
       sodipodi:cx="205.17857"
       sodipodi:cy="0.107715"
       sodipodi:rx="3.3928571"
       sodipodi:ry="0.46875"
       d="m 208.57143,0.107715 c 0,0.25888348 -1.51903,0.46875 -3.39286,0.46875 -1.87382,0 -3.39285,-0.20986652 -3.39285,-0.46875 0,-0.25888347 1.51903,-0.46875 3.39285,-0.46875 1.87383,0 3.39286,0.20986653 3.39286,0.46875 z"
       transform="matrix(0.48284196,0,0,0.56856058,455.23903,585.70351)" />
    <rect
       style="fill:#f89406;fill-opacity:1"
       id="rect3031-7"
       width="3.5182161"
       height="4.1991825"
       x="818.67426"
       y="-26.930182"
       ry="0"
       transform="matrix(0.66732919,0.74476288,-0.64719749,0.76232238,0,0)" />
    <path
       sodipodi:type="arc"
       style="fill:#f89406;fill-opacity:1"
       id="path3056-4"
       sodipodi:cx="205.17857"
       sodipodi:cy="0.107715"
       sodipodi:rx="3.3928571"
       sodipodi:ry="0.46875"
       d="m 208.57143,0.107715 c 0,0.25888348 -1.51903,0.46875 -3.39286,0.46875 -1.87382,0 -3.39285,-0.20986652 -3.39285,-0.46875 0,-0.25888347 1.51903,-0.46875 3.39285,-0.46875 1.87383,0 3.39286,0.20986653 3.39286,0.46875 z"
       transform="matrix(0.34599278,0.38614013,-0.34588914,0.40741666,493.9675,511.23636)" />
    <path
       sodipodi:type="arc"
       style="fill:#f89406;fill-opacity:1"
       id="path3083"
       sodipodi:cx="204.97258"
       sodipodi:cy="27.322517"
       sodipodi:rx="0.9722718"
       sodipodi:ry="0.9722718"
       d="m 205.94485,27.322517 c 0,0.536971 -0.4353,0.972272 -0.97227,0.972272 -0.53697,0 -0.97227,-0.435301 -0.97227,-0.972272 0,-0.53697 0.4353,-0.972271 0.97227,-0.972271 0.53697,0 0.97227,0.435301 0.97227,0.972271 z"
       transform="matrix(0.95929809,0,0,1.1248725,357.65327,572.23857)" />
    <rect
       style="fill:#f89406;fill-opacity:1"
       id="rect3103"
       width="1.002849"
       height="3.6636362"
       x="553.80292"
       y="599.3457"
       rx="0.22138423" />
    <rect
       style="fill:#f89406;fill-opacity:1"
       id="rect3103-2"
       width="0.96719372"
       height="6.0974541"
       x="820.91864"
       y="92.687737"
       rx="0.21351315"
       inkscape:transform-center-y="-1.8358656"
       transform="matrix(0.75983837,0.65011203,-0.70977822,0.70442521,0,0)"
       inkscape:transform-center-x="-1.8498018" />
  </g>
</svg>
