<?xml version="1.0" encoding="UTF-8" standalone="no"?>
<!-- Created with Inkscape (http://www.inkscape.org/) -->
<svg id="svg2" xmlns:rdf="http://www.w3.org/1999/02/22-rdf-syntax-ns#" xmlns="http://www.w3.org/2000/svg" height="60.14" width="172.9" version="1.1" xmlns:cc="http://creativecommons.org/ns#" xmlns:dc="http://purl.org/dc/elements/1.1/">
 <metadata id="metadata7">
  <rdf:RDF>
   <cc:Work rdf:about="">
    <dc:format>image/svg+xml</dc:format>
    <dc:type rdf:resource="http://purl.org/dc/dcmitype/StillImage"/>
    <dc:title/>
   </cc:Work>
  </rdf:RDF>
 </metadata>
 <g id="layer1" transform="translate(-1.0216112,-13.670773)">
  <text id="text3001" style="letter-spacing:-3.5px;word-spacing:0px;" font-weight="bold" xml:space="preserve" font-size="40px" font-stretch="normal" line-height="0%" font-variant="normal" y="42.362179" x="37.142857" font-family="Aharoni" font-style="normal" fill="#7adb83"><tspan id="tspan3003" x="37.142857" y="42.362179"><tspan id="tspan3005" style="letter-spacing:-3.5px;baseline-shift:baseline;word-spacing:-7.69999981px;" rotate="359.60001 0 0 0" fill="#7adb83" line-height="0%">Min</tspan></tspan><tspan id="tspan3007" x="37.142857" y="42.362179"/></text>
  <text id="text3009" style="letter-spacing:-3.15781927px;word-spacing:0px;" font-weight="bold" xml:space="preserve" transform="scale(0.90223405,1.1083599)" font-stretch="normal" line-height="0%" font-size="36.0893631px" font-variant="normal" y="62.870926" x="42.948948" font-family="Aharoni" font-style="normal" fill="#7adb83"><tspan id="tspan3011" x="42.948948" y="62.870926">Work</tspan></text>
  <text id="text3013" style="letter-spacing:0px;word-spacing:0px;" font-weight="bold" xml:space="preserve" transform="matrix(1.0383723,0,0.22310708,0.96304572,0,0)" font-stretch="normal" line-height="125%" font-size="122.85129547px" font-variant="normal" y="71.986679" x="-11.023291" font-family="Aharoni" font-style="normal" fill="#f89406"><tspan id="tspan3015" x="-11.023291" y="71.986679">7</tspan></text>
  <path id="path3021" stroke-linejoin="miter" style="marker-end:none;marker-start:none;marker-mid:none;" d="m224.8,27.36c0,10.95-8.874,19.82-19.82,19.82s-19.82-8.874-19.82-19.82,8.874-19.82,19.82-19.82,19.82,8.874,19.82,19.82z" transform="matrix(0.49589174,0,0,0.56856058,25.429322,44.85487)" stroke-dashoffset="0" stroke="#f89406" stroke-linecap="butt" stroke-miterlimit="4" stroke-dasharray="none" stroke-width="8.01891613" fill="none"/>
  <rect id="rect3031" ry="0" height="4.467" width="3.276" y="43.19" x="125.5" fill="#f89406"/>
  <path id="path3056" d="m208.6,0.1077c0,0.2589-1.519,0.4688-3.393,0.4688s-3.393-0.2099-3.393-0.4688,1.519-0.4688,3.393-0.4688,3.393,0.2099,3.393,0.4688z" transform="matrix(0.48284196,0,0,0.56856058,28.040446,43.145093)" fill="#f89406"/>
  <rect id="rect3031-7" transform="matrix(0.66732919,0.74476288,-0.64719749,0.76232238,0,0)" ry="0" height="4.199" width="3.518" y="-71.24" x="135.5" fill="#f89406"/>
  <path id="path3056-4" d="m208.6,0.1077c0,0.2589-1.519,0.4688-3.393,0.4688s-3.393-0.2099-3.393-0.4688,1.519-0.4688,3.393-0.4688,3.393,0.2099,3.393,0.4688z" transform="matrix(0.34599278,0.38614013,-0.34588914,0.40741666,66.768916,-31.322055)" fill="#f89406"/>
  <path id="path3083" d="m205.9,27.32c0,0.537-0.4353,0.9723-0.9723,0.9723s-0.9723-0.4353-0.9723-0.9723,0.4353-0.9723,0.9723-0.9723,0.9723,0.4353,0.9723,0.9723z" transform="matrix(0.95929809,0,0,1.1248725,-69.545318,29.680155)" fill="#f89406"/>
  <rect id="rect3103" rx="0.2214" height="3.664" width="1.003" y="56.79" x="126.6" fill="#f89406"/>
  <text id="text3009-8" style="letter-spacing:-3.15781927px;word-spacing:0px;" font-weight="bold" xml:space="preserve" transform="scale(0.90223402,1.1083599)" font-stretch="normal" line-height="0%" font-size="36.0893631px" font-variant="normal" y="62.026161" x="153.31876" font-family="Aharoni" font-style="normal" fill="#7adb83"><tspan id="tspan3011-2" x="153.31876" y="62.026161">u</tspan></text>
  <text id="text3009-8-4" style="letter-spacing:-4.87739468px;word-spacing:0px;" font-weight="bold" xml:space="preserve" transform="scale(0.90958158,1.0994066)" font-stretch="normal" line-height="0%" font-size="55.74165726px" font-variant="normal" y="63.376591" x="165.24617" font-family="Aharoni" font-style="normal" fill="#7adb83"><tspan id="tspan3011-2-5" x="165.24617" y="63.376591">T</tspan></text>
  <rect id="rect3103-2" rx="0.2135" transform="matrix(0.75983837,0.65011203,-0.70977822,0.70442521,0,0)" height="6.097" width="0.9672" y="-42.29" x="132.6" fill="#f89406"/>
 </g>
</svg>
